<svg width="63" height="50" viewBox="0 0 63 50" fill="none" xmlns="http://www.w3.org/2000/svg">
<path d="M59.9537 18.3788H15.6842C14.0947 18.3788 12.8065 19.667 12.8065 21.2565V47.1223C12.8065 48.7118 14.0947 50 15.6842 50H59.9547C61.5443 50 62.8324 48.7118 62.8324 47.1223V21.2565C62.8324 19.667 61.5443 18.3788 59.9547 18.3788H59.9537ZM28.4968 31.4687C28.4968 32.3069 27.8166 32.9871 26.9784 32.9871H19.4462C18.608 32.9871 17.9278 32.3069 17.9278 31.4687V27.599C17.9278 26.7608 18.608 26.0806 19.4462 26.0806H26.9784C27.8166 26.0806 28.4968 26.7608 28.4968 27.599V31.4687Z" fill="#2A8FEC"/>
<path d="M9.75723 44.3294C9.96128 44.8442 10.2982 45.267 10.7126 45.5746V27.5571L4.13159 30.1721L9.75723 44.3283V44.3294Z" fill="#81D1FF"/>
<path d="M21.8634 16.2859L48.2734 5.79019L46.6943 1.81583C46.1073 0.338266 44.434 -0.382728 42.9564 0.204322L1.81583 16.5538C0.338266 17.1409 -0.382728 18.8141 0.204322 20.2917L1.78339 24.2661L10.744 20.705C11.0192 18.2229 13.1288 16.2859 15.6832 16.2859H21.8634Z" fill="#81D1FF"/>
<path d="M52.4445 16.2859L50.6216 11.6973L39.0763 16.2859H52.4445Z" fill="#81D1FF"/>
</svg>
