<svg width="20" height="20" viewBox="0 0 20 20" fill="none" xmlns="http://www.w3.org/2000/svg">
<path d="M15.5 0.5V4H2C1.57549 4 1.21593 3.89352 0.964704 3.6609C0.721223 3.43545 0.5 3.01757 0.5 2.22222C0.5 1.42907 0.720921 1.00652 0.927269 0.786415C1.14111 0.558321 1.38204 0.5 1.5 0.5H15.5ZM0.5 19.5V4.56859C0.960114 4.89346 1.50416 5 2 5H16V4.5H18.5V19.5H0.5Z" fill="white" stroke="#959595"/>
<path d="M19 14.5H12.5937C12.4881 14.5 12.391 14.4698 12.3134 14.4165C11.6673 13.9737 10.5 13.0325 10.5 11.5C10.5 9.96748 11.6673 9.02628 12.3134 8.58345C12.391 8.53023 12.4881 8.5 12.5937 8.5H19C19.2761 8.5 19.5 8.72386 19.5 9V14C19.5 14.2761 19.2761 14.5 19 14.5Z" fill="white" stroke="#959595"/>
<circle cx="14.5" cy="11.5" r="1" fill="white" stroke="#959595"/>
</svg>
