<svg width="17" height="20" viewBox="0 0 17 20" fill="none" xmlns="http://www.w3.org/2000/svg">
<g clip-path="url(#clip0_603_1253)">
<path d="M8.61425 10.4145C8.53512 10.4145 8.456 10.3919 8.38667 10.3467C5.80792 8.65563 3.14176 6.90808 2.38441 0.462719C2.37084 0.345161 2.40777 0.227602 2.48614 0.13868C2.56451 0.050511 2.67755 -0.000732422 2.79586 -0.000732422H14.4319C14.5502 -0.000732422 14.6632 0.0497574 14.7416 0.13868C14.82 0.226849 14.8569 0.345161 14.8433 0.462719C14.0867 6.90733 11.4198 8.65563 8.84108 10.3467C8.77175 10.3919 8.69262 10.4145 8.6135 10.4145H8.61425ZM3.26685 0.828959C4.02043 6.3331 6.23369 7.93898 8.61425 9.50417C10.9948 7.93898 13.2088 6.33386 13.9617 0.828959H3.26685Z" fill="#959595" stroke="#959595" stroke-width="0.2"/>
<path d="M14.4319 20H2.79666C2.67834 20 2.56531 19.9495 2.48693 19.8606C2.40856 19.7724 2.37164 19.6541 2.3852 19.5365C3.1418 13.0919 5.80796 11.3436 8.38671 9.65333C8.52537 9.5629 8.70321 9.5629 8.84187 9.65333C11.4206 11.3444 14.0868 13.0927 14.8441 19.5373C14.8577 19.6548 14.8208 19.7724 14.7424 19.8613C14.664 19.9495 14.551 20.0007 14.4327 20.0007L14.4319 20ZM3.26689 19.171H13.9617C13.2081 13.6669 10.9941 12.061 8.61429 10.4958C6.23449 12.061 4.02047 13.6669 3.26689 19.171Z" fill="#959595" stroke="#959595" stroke-width="0.2"/>
<path d="M12.67 18.4928H4.55848C4.43413 18.4928 4.31658 18.4371 4.23745 18.3406C4.15908 18.2441 4.12743 18.1175 4.1523 17.9955C4.94808 14.0814 8.57732 14.0331 8.61349 14.0331C8.64966 14.0331 12.2804 14.0806 13.0762 17.9955C13.1011 18.1175 13.0694 18.2441 12.991 18.3406C12.9127 18.4371 12.7943 18.4928 12.67 18.4928ZM5.08975 17.6639H12.1387C11.3015 14.8975 8.72878 14.8621 8.61349 14.8621C8.50045 14.8621 5.92471 14.9148 5.08975 17.6639Z" fill="#959595" stroke="#959595" stroke-width="0.2"/>
<path d="M15.9391 0.828937H1.28947C1.06038 0.828937 0.875 0.643557 0.875 0.414469C0.875 0.185381 1.06038 0 1.28947 0H15.9391C16.1681 0 16.3535 0.185381 16.3535 0.414469C16.3535 0.643557 16.1681 0.828937 15.9391 0.828937Z" fill="#959595" stroke="#959595" stroke-width="0.2"/>
<path d="M15.9391 20H1.28947C1.06038 20 0.875 19.8146 0.875 19.5856C0.875 19.3565 1.06038 19.1711 1.28947 19.1711H15.9391C16.1681 19.1711 16.3535 19.3565 16.3535 19.5856C16.3535 19.8146 16.1681 20 15.9391 20Z" fill="#959595" stroke="#959595" stroke-width="0.2"/>
<path d="M8.61427 8.60436C8.53288 8.60436 8.45074 8.58024 8.3799 8.53201C6.84863 7.48228 5.66024 6.36773 4.83733 4.33834C4.78533 4.21099 4.8004 4.06555 4.87802 3.951C4.95488 3.83646 5.08375 3.76788 5.22165 3.76788H12.0069C12.1448 3.76788 12.2737 3.83646 12.3505 3.951C12.4281 4.06555 12.4432 4.21023 12.3912 4.33834C11.5691 6.36698 10.3799 7.48228 8.84863 8.53201C8.77779 8.58024 8.69565 8.60436 8.61427 8.60436ZM5.85918 4.59682C6.54042 5.99245 7.43868 6.85228 8.61427 7.68499C9.78985 6.85304 10.6881 5.99245 11.3694 4.59682H5.85918Z" fill="#959595" stroke="#959595" stroke-width="0.2"/>
</g>
<defs>
<clipPath id="clip0_603_1253">
<rect width="15.4785" height="20" fill="white" transform="translate(0.875)"/>
</clipPath>
</defs>
</svg>
